<svg width="32" height="33" viewBox="0 0 32 33" fill="none" xmlns="http://www.w3.org/2000/svg">
<path fill-rule="evenodd" clip-rule="evenodd" d="M2.94474 16.4879C1.33084 16.8078 0.114281 18.2297 0.114281 19.9351L0.114281 28.8816C0.114281 30.8227 1.69024 32.3963 3.63429 32.3963H12.5943C14.3424 32.3963 15.7929 31.1238 16.0675 29.4559C16.388 31.0674 17.812 32.2822 19.52 32.2822H28.48C30.424 32.2822 32 30.7086 32 28.7675V19.8211C32 18.0755 30.7256 16.6272 29.0554 16.353C30.6691 16.033 31.8858 14.6112 31.8858 12.9057V3.95927C31.8858 2.01816 30.3098 0.444581 28.3658 0.44458L19.4058 0.44458C17.6576 0.44458 16.207 1.71699 15.9325 3.38487C15.612 1.77342 14.188 0.558692 12.48 0.558692H3.52C1.57596 0.558692 0 2.13227 0 4.07338V13.0199C0 14.7654 1.27434 16.2137 2.94474 16.4879Z" fill="#BFBFB1"/>
</svg>
